Coordinates
version=1
nRows=21
nColumns=22
inDegrees=yes

Units are S.I. units (second, meters, Newtons, ...)
If the header above contains a line with 'inDegrees', this indicates whether rotational values are in degrees (yes) or radians (no).

endheader
time	pelvis_tilt	pelvis_list	pelvis_rotation	pelvis_tx	pelvis_ty	pelvis_tz	hip_flexion_r	hip_adduction_r	hip_rotation_r	knee_angle_r	ankle_angle_r	subtalar_angle_r	hip_flexion_l	hip_adduction_l	hip_rotation_l	knee_angle_l	ankle_angle_l	subtalar_angle_l	lumbar_extension	lumbar_bending	lumbar_rotation
      1.98000000	      1.28613459	     -3.81048262	     53.46049046	      0.94765308	      0.98541230	      0.79058349	     26.67910265	      0.91881702	      4.56581388	    -22.68666495	      1.09224732	     15.11759610	     -9.43754733	     -2.18801262	     -2.48131963	    -31.27241649	      0.29486880	      3.30441220	     -1.20498316	      0.47472905	     -6.97727054
      1.99000000	      1.50670002	     -3.84054229	     53.83762141	      0.95592592	      0.98704164	      0.78267101	     26.20355810	      1.14075114	      4.28969515	    -23.35992491	      1.48399841	     14.70050822	     -8.55411028	     -2.86189804	     -3.35532778	    -33.58209962	     -1.97854106	      3.63229726	     -1.13843885	      0.63564090	     -6.74702637
      2.00000000	      1.73348518	     -3.86425370	     54.24090758	      0.96403396	      0.98861611	      0.77496227	     25.67249636	      1.36558612	      3.98298402	    -23.92922899	      1.93516943	     14.23873241	     -7.53524738	     -3.58603048	     -4.17683206	    -36.05716335	     -4.15828423	      3.76534817	     -1.11100245	      0.78026047	     -6.55717784
      2.01000000	      1.96227488	     -3.89225378	     54.68675797	      0.97192172	      0.99009670	      0.76743188	     25.10535592	      1.58613893	      3.61590163	    -24.40334577	      2.43599116	     13.71748899	     -6.37455863	     -4.35323656	     -4.88730601	    -38.68501010	     -6.13728936	      3.67701400	     -1.11405775	      0.91496653	     -6.39051936
      2.02000000	      2.19800782	     -3.92637856	     55.18799782	      0.97953269	      0.99150077	      0.76004971	     24.49425626	      1.80582363	      3.22018529	    -24.76852566	      2.95380992	     13.21991499	     -5.08271284	     -5.14684987	     -5.42335511	    -41.43223386	     -7.82390928	      3.45402182	     -1.14834695	      1.05562283	     -6.28004790
      2.03000000	      2.43768389	     -3.96830420	     55.74380618	      0.98684519	      0.99280072	      0.75279285	     23.85894075	      2.02142190	      2.78431915	    -25.05013997	      3.48994280	     12.71244546	     -3.67096663	     -5.93766108	     -5.74384346	    -44.26025477	     -9.11930790	      3.10778940	     -1.20834892	      1.19860433	     -6.19171942
      2.04000000	      2.66721046	     -4.00848554	     56.33503402	      0.99384343	      0.99400240	      0.74561721	     23.21083323	      2.22319004	      2.34549999	    -25.27143122	      4.04547161	     12.15128018	     -2.16921066	     -6.66994764	     -5.84125402	    -47.09494967	     -9.96920199	      2.61431028	     -1.28800717	      1.33143179	     -6.08070236
      2.05000000	      2.92460035	     -4.02592776	     57.00478236	      1.00042280	      0.99521101	      0.73842267	     22.48476855	      2.40725458	      1.87187234	    -25.38666415	      4.56701259	     11.78030455	     -0.62839974	     -7.33632529	     -5.67920665	    -49.87398943	    -10.31141321	      2.26088984	     -1.42477669	      1.49429181	     -6.05005821
      2.06000000	      3.13994752	     -4.04307380	     57.67691539	      1.00666563	      0.99632252	      0.73125039	     21.78135304	      2.55661479	      1.41902761	    -25.46841482	      5.10387531	     11.33484054	      0.97238282	     -7.86251316	     -5.35266652	    -52.52534380	    -10.21966607	      1.73788756	     -1.54486879	      1.62769174	     -5.94115252
      2.07000000	      3.34785826	     -4.00809215	     58.38903636	      1.01249321	      0.99748135	      0.72402820	     21.01535597	      2.65108599	      0.95011864	    -25.48762596	      5.64138577	     11.02368860	      2.54782224	     -8.23790329	     -4.86772183	    -54.98370180	     -9.69717018	      1.24712513	     -1.71715580	      1.74319637	     -5.83930245
      2.08000000	      3.51646916	     -3.93475151	     59.10647356	      1.01796312	      0.99866621	      0.71680210	     20.22793892	      2.68358323	      0.48271268	    -25.46340915	      6.16574296	     10.77783275	      4.10403890	     -8.45216440	     -4.31731350	    -57.20920323	     -8.84544991	      0.71463652	     -1.90748970	      1.81390785	     -5.69816978
      2.09000000	      3.65594829	     -3.81543342	     59.83622810	      1.02308611	      0.99992196	      0.70956409	     19.39537201	      2.65873580	      0.01317000	    -25.38041856	      6.65720147	     10.61620105	      5.61473721	     -8.52227250	     -3.74259591	    -59.17399535	     -7.77090736	      0.19966517	     -2.12586188	      1.84649404	     -5.54709067
      2.10000000	      3.76206460	     -3.65955141	     60.53346316	      1.02795873	      1.00123025	      0.70236395	     18.54379866	      2.58860591	     -0.47408699	    -25.26728034	      7.12732165	     10.49893466	      7.06438372	     -8.47599662	     -3.23545959	    -60.85934668	     -6.56084367	     -0.31692074	     -2.36196334	      1.83611704	     -5.31355015
      2.11000000	      3.83108621	     -3.51588363	     61.20902735	      1.03265514	      1.00255716	      0.69519201	     17.67635706	      2.50787859	     -0.91288322	    -25.05003331	      7.56918004	     10.40053766	      8.49418870	     -8.35799311	     -2.81177202	    -62.25995888	     -5.32977720	     -0.90521765	     -2.55289164	      1.80135885	     -5.05256040
      2.12000000	      3.88477576	     -3.34624550	     61.83603037	      1.03721215	      1.00393123	      0.68810614	     16.78653942	      2.41624411	     -1.34282829	    -24.80016742	      7.97107520	     10.33705693	      9.84551426	     -8.19128451	     -2.52208792	    -63.37790805	     -4.10322244	     -1.48632619	     -2.76397365	      1.73932090	     -4.73460352
      2.13000000	      3.92438770	     -3.16868720	     62.40743340	      1.04168202	      1.00532583	      0.68109783	     15.87392083	      2.32930544	     -1.73875192	    -24.48921717	      8.33431425	     10.29670144	     11.12517701	     -8.00513859	     -2.38338824	    -64.21171233	     -2.92066855	     -2.06058021	     -2.97367716	      1.65904642	     -4.36177484
      2.14000000	      3.95872412	     -2.98848104	     62.91765166	      1.04610011	      1.00671610	      0.67416534	     14.94305776	      2.25768807	     -2.10702476	    -24.12588383	      8.65805118	     10.27283018	     12.33094039	     -7.82476679	     -2.40177160	    -64.77298133	     -1.80042224	     -2.61995848	     -3.17926485	      1.57032795	     -3.94027415
      2.15000000	      3.97952166	     -2.81101274	     63.35790970	      1.05050178	      1.00807608	      0.66734743	     14.00739653	      2.20289815	     -2.40074608	    -23.71679700	      8.94373294	     10.25896298	     13.46858762	     -7.66300318	     -2.59162936	    -65.06340988	     -0.74619600	     -3.19876482	     -3.38004348	      1.46012347	     -3.46184494
      2.16000000	      4.01224310	     -2.65244877	     63.76130877	      1.05486573	      1.00936751	      0.66059180	     13.07396991	      2.17685614	     -2.71796363	    -23.27389841	      9.19962857	     10.25650682	     14.55475788	     -7.55615786	     -2.91432246	    -65.10899663	      0.24576247	     -3.61029778	     -3.56753292	      1.36484135	     -2.96079690
      2.17000000	      4.03120189	     -2.51685603	     64.11093215	      1.05922817	      1.01056529	      0.65391869	     12.15725330	      2.17010408	     -2.96707864	    -22.79472933	      9.42076238	     10.26271532	     15.59674269	     -7.48732003	     -3.38239643	    -64.90829228	      1.15705815	     -4.01556838	     -3.72546662	      1.25703589	     -2.43366068
      2.18000000	      4.04834791	     -2.41589805	     64.42720766	      1.06356111	      1.01163801	      0.64730256	     11.27230725	      2.18561066	     -3.21545428	    -22.29720533	      9.62042508	     10.27760703	     16.60616765	     -7.47701984	     -3.97805580	    -64.47461932	      1.99265914	     -4.34639211	     -3.85227482	      1.15618658	     -1.90749161
